<?xml version="1.0" encoding="UTF-8" standalone="no"?><!-- Generator: Gravit.io --><svg xmlns="http://www.w3.org/2000/svg" xmlns:xlink="http://www.w3.org/1999/xlink" style="isolation:isolate" viewBox="420.72 325.432 567.144 72.876" width="567.144pt" height="72.876pt"><defs><clipPath id="_clipPath_wdN2FIQrsWgoSzvlmcvpSLOOfnKRlL4U"><rect x="420.72" y="325.432" width="567.144" height="72.876"/></clipPath></defs><g clip-path="url(#_clipPath_wdN2FIQrsWgoSzvlmcvpSLOOfnKRlL4U)"><path d=" M 818.16 366.76 L 818.16 366.76 L 818.16 366.76 Q 816.216 368.344 816.144 369.424 L 816.144 369.424 L 816.144 369.424 Q 816 371.368 818.016 375.832 L 818.016 375.832 L 818.016 375.832 Q 820.248 380.8 820.536 383.104 L 820.536 383.104 L 820.536 383.104 Q 820.608 385.624 820.752 388.144 L 820.752 388.144 L 820.752 388.144 Q 820.968 391.888 821.544 392.608 L 821.544 392.608 L 821.544 392.608 Q 822.336 393.544 822.696 394.624 L 822.696 394.624 L 822.696 394.624 Q 823.056 395.632 821.04 396.496 L 821.04 396.496 L 821.04 396.496 Q 819.744 397.072 818.376 397.072 L 818.376 397.072 L 818.376 397.072 Q 817.8 397.072 816.72 396.892 L 816.72 396.892 L 816.72 396.892 Q 815.64 396.712 814.992 396.712 L 814.992 396.712 L 814.992 396.712 Q 812.904 396.712 809.808 397.36 L 809.808 397.36 L 809.808 397.36 Q 805.056 398.368 803.256 398.008 L 803.256 398.008 L 803.256 398.008 Q 801.384 397.648 801.24 395.272 L 801.24 395.272 L 801.24 395.272 Q 801.096 393.4 803.112 391.744 L 803.112 391.744 L 803.112 391.744 Q 805.704 389.728 806.64 386.848 L 806.64 386.848 L 806.64 386.848 Q 807.792 383.104 807.648 380.224 L 807.648 380.224 L 807.648 380.224 Q 807.504 377.344 806.136 371.584 L 806.136 371.584 L 806.136 371.584 Q 805.632 369.424 805.632 365.824 L 805.632 365.824 L 805.632 365.824 Q 805.632 363.376 806.244 358.444 L 806.244 358.444 L 806.244 358.444 Q 806.856 353.512 806.856 351.064 L 806.856 351.064 L 806.856 351.064 Q 806.856 346.312 806.136 343.36 L 806.136 343.36 L 806.136 343.36 Q 804.48 336.592 802.392 331.12 L 802.392 331.12 L 802.392 331.12 Q 802.104 330.4 802.104 329.608 L 802.104 329.608 L 802.104 329.608 Q 802.104 326.8 805.632 326.8 L 805.632 326.8 L 805.632 326.8 Q 806.784 326.8 809.196 327.088 L 809.196 327.088 L 809.196 327.088 Q 811.608 327.376 812.904 327.376 L 812.904 327.376 L 812.904 327.376 Q 815.64 327.376 820.86 326.692 L 820.86 326.692 L 820.86 326.692 Q 826.08 326.008 828.888 326.008 L 828.888 326.008 L 828.888 326.008 Q 832.992 326.008 835.584 326.584 L 835.584 326.584 L 835.584 326.584 Q 841.704 327.952 845.376 331.12 L 845.376 331.12 L 845.376 331.12 Q 848.112 333.496 850.632 333.496 L 850.632 333.496 L 850.632 333.496 Q 851.136 333.496 851.496 333.352 L 851.496 333.352 L 851.496 333.352 Q 853.944 332.344 855.384 330.976 L 855.384 330.976 L 855.384 330.976 Q 855.744 330.616 856.104 330.616 L 856.104 330.616 L 856.104 330.616 Q 856.896 330.616 856.896 332.344 L 856.896 332.344 L 856.896 332.344 Q 856.896 333.352 854.664 337.348 L 854.664 337.348 L 854.664 337.348 Q 852.432 341.344 852.432 345.232 L 852.432 345.232 L 852.432 345.232 Q 852.432 346.024 852.648 347.608 L 852.648 347.608 L 852.648 347.608 Q 852.864 349.624 852.072 350.992 L 852.072 350.992 L 852.072 350.992 Q 850.056 354.808 844.44 359.848 L 844.44 359.848 L 844.44 359.848 Q 841.056 362.872 837.096 364.672 L 837.096 364.672 L 837.096 364.672 Q 832.56 366.76 832.056 366.76 L 832.056 366.76 L 832.056 366.76 Q 831.12 366.76 831.12 365.896 L 831.12 365.896 L 831.12 365.896 Q 831.12 364.888 832.848 362.944 L 832.848 362.944 L 832.848 362.944 Q 836.448 359.272 841.92 352.864 L 841.92 352.864 L 841.92 352.864 Q 843.864 349.84 843.864 345.088 L 843.864 345.088 L 843.864 345.088 Q 843.864 340.768 840.336 337.744 L 840.336 337.744 L 840.336 337.744 Q 838.248 336.016 835.944 335.224 L 835.944 335.224 L 835.944 335.224 Q 832.56 334.072 827.088 334.072 L 827.088 334.072 L 827.088 334.072 Q 821.112 334.072 818.304 335.728 L 818.304 335.728 L 818.304 335.728 Q 816.576 336.736 816.576 337.96 L 816.576 337.96 L 816.576 337.96 Q 816.576 338.392 816.792 338.752 L 816.792 338.752 L 816.792 338.752 Q 818.016 340.912 818.016 345.232 L 818.016 345.232 L 818.016 345.232 Q 818.016 345.88 817.872 347.104 L 817.872 347.104 L 817.872 347.104 Q 817.728 348.328 817.728 348.976 L 817.728 348.976 L 817.728 348.976 Q 817.728 350.776 818.7 352.072 L 818.7 352.072 L 818.7 352.072 Q 819.672 353.368 821.4 353.152 L 821.4 353.152 L 821.4 353.152 Q 830.04 352.216 842.856 356.176 L 842.856 356.176 L 842.856 356.176 Q 847.752 357.688 853.224 362.8 L 853.224 362.8 L 853.224 362.8 Q 855.528 364.96 857.4 368.884 L 857.4 368.884 L 857.4 368.884 Q 859.272 372.808 859.776 376.192 L 859.776 376.192 L 859.776 376.192 Q 861 384.4 862.512 389.368 L 862.512 389.368 L 862.512 389.368 Q 862.944 390.808 862.944 391.6 L 862.944 391.6 L 862.944 391.6 Q 862.944 392.392 862.584 392.392 L 862.584 392.392 L 862.584 392.392 Q 862.368 392.392 861.504 391.6 L 861.504 391.6 L 861.504 391.6 Q 860.64 390.808 859.56 390.808 L 859.56 390.808 L 859.56 390.808 Q 858.552 390.808 856.32 392.68 L 856.32 392.68 L 856.32 392.68 Q 853.44 395.128 853.08 395.344 L 853.08 395.344 L 853.08 395.344 Q 850.416 396.928 848.616 396.928 L 848.616 396.928 L 848.616 396.928 Q 847.896 396.928 847.896 396.496 L 847.896 396.496 L 847.896 396.496 Q 847.896 395.992 848.976 394.984 L 848.976 394.984 L 848.976 394.984 Q 855.456 388.864 853.728 378.568 L 853.728 378.568 L 853.728 378.568 Q 852.936 373.744 849.3 369.964 L 849.3 369.964 L 849.3 369.964 Q 845.664 366.184 837.456 363.808 L 837.456 363.808 L 837.456 363.808 Q 834.432 362.944 830.4 362.944 L 830.4 362.944 L 830.4 362.944 Q 822.84 362.944 818.16 366.76 Z  M 910.608 385.696 L 910.608 385.696 L 910.608 385.696 Q 913.56 379.792 914.136 375.976 L 914.136 375.976 L 914.136 375.976 Q 914.352 374.752 914.352 373.456 L 914.352 373.456 L 914.352 373.456 Q 914.352 366.616 909.744 359.92 L 909.744 359.92 L 909.744 359.92 Q 906.648 355.528 904.488 353.8 L 904.488 353.8 L 904.488 353.8 Q 901.32 351.28 896.928 351.28 L 896.928 351.28 L 896.928 351.28 Q 895.2 351.28 892.068 351.892 L 892.068 351.892 L 892.068 351.892 Q 888.936 352.504 887.64 352.504 L 887.64 352.504 L 887.64 352.504 Q 886.056 352.504 884.904 350.848 L 884.904 350.848 L 884.904 350.848 Q 883.968 349.48 883.824 347.752 L 883.824 347.752 L 883.824 347.752 Q 883.536 345.664 882.672 345.664 L 882.672 345.664 L 882.672 345.664 Q 881.664 345.664 880.584 348.544 L 880.584 348.544 L 880.584 348.544 Q 880.296 349.264 875.904 358.984 L 875.904 358.984 L 875.904 358.984 Q 873.24 364.816 872.52 370 L 872.52 370 L 872.52 370 Q 871.512 376.912 872.304 382.168 L 872.304 382.168 L 872.304 382.168 Q 873.096 387.424 876.264 389.512 L 876.264 389.512 L 876.264 389.512 Q 876.912 389.944 878.064 389.944 L 878.064 389.944 L 878.064 389.944 Q 881.088 389.944 883.68 387.208 L 883.68 387.208 L 883.68 387.208 Q 885.768 385.048 885.768 382.456 L 885.768 382.456 L 885.768 382.456 Q 885.768 380.8 884.688 379.792 L 884.688 379.792 L 884.688 379.792 Q 881.448 376.84 881.088 372.376 L 881.088 372.376 L 881.088 372.376 Q 880.728 367.912 882.528 364.06 L 882.528 364.06 L 882.528 364.06 Q 884.328 360.208 888.936 358.696 L 888.936 358.696 L 888.936 358.696 Q 892.104 357.616 894.696 357.616 L 894.696 357.616 L 894.696 357.616 Q 902.616 357.616 908.376 368.776 L 908.376 368.776 L 908.376 368.776 Q 909.024 370 909.024 372.088 L 909.024 372.088 L 909.024 372.088 Q 909.024 375.112 907.728 377.344 L 907.728 377.344 L 907.728 377.344 Q 906.792 379 906.792 379.432 L 906.792 379.432 L 906.792 379.432 Q 906.792 379.72 906.936 379.72 L 906.936 379.72 L 906.936 379.72 Q 907.296 379.72 908.448 378.64 L 908.448 378.64 L 908.448 378.64 Q 909.024 378.064 909.6 378.064 L 909.6 378.064 L 909.6 378.064 Q 910.32 378.064 910.32 379.72 L 910.32 379.72 L 910.32 379.72 Q 910.32 381.016 909.672 383.464 L 909.672 383.464 L 909.672 383.464 Q 909.024 385.912 909.024 387.136 L 909.024 387.136 L 909.024 387.136 Q 909.024 387.64 909.24 387.64 L 909.24 387.64 L 909.24 387.64 Q 909.672 387.64 910.608 385.696 Z  M 985.776 351.064 L 985.776 351.064 L 985.776 351.064 Q 984.408 346.888 981.276 341.992 L 981.276 341.992 L 981.276 341.992 Q 978.144 337.096 974.94 334.36 L 974.94 334.36 L 974.94 334.36 Q 971.736 331.624 966.732 329.392 L 966.732 329.392 L 966.732 329.392 Q 961.728 327.16 957.588 326.728 L 957.588 326.728 L 957.588 326.728 Q 953.448 326.296 945.888 326.296 L 945.888 326.296 L 945.888 326.296 Q 937.896 326.368 934.224 326.008 L 934.224 326.008 L 934.224 326.008 Q 928.68 325.504 928.68 326.368 L 928.68 326.368 L 928.68 326.368 Q 928.68 326.656 929.4 326.944 L 929.4 326.944 L 929.4 326.944 Q 932.712 328.672 932.208 328.744 L 932.208 328.744 L 932.208 328.744 Q 931.704 328.816 928.464 334.36 L 928.464 334.36 L 928.464 334.36 Q 927.096 336.664 926.196 340.192 L 926.196 340.192 L 926.196 340.192 Q 925.296 343.72 925.296 346.456 L 925.296 346.456 L 925.296 346.456 Q 925.296 348.976 926.16 351.856 L 926.16 351.856 L 926.16 351.856 Q 927.096 355.096 928.608 356.752 L 928.608 356.752 L 928.608 356.752 Q 930.624 358.984 930.624 361.144 L 930.624 361.144 L 930.624 361.144 Q 930.624 361.936 930.192 362.44 L 930.192 362.44 L 930.192 362.44 Q 927.456 365.608 926.304 371.512 L 926.304 371.512 L 926.304 371.512 Q 925.44 376.336 925.8 381.448 L 925.8 381.448 L 925.8 381.448 Q 926.376 389.008 929.184 393.4 L 929.184 393.4 L 929.184 393.4 Q 930.552 395.56 934.872 396.784 L 934.872 396.784 L 934.872 396.784 Q 938.4 397.864 941.64 397.864 L 941.64 397.864 L 941.64 397.864 Q 951.648 397.864 957.48 398.008 L 957.48 398.008 L 957.48 398.008 Q 960.288 398.08 964.392 396.784 L 964.392 396.784 L 964.392 396.784 Q 968.064 395.56 970.8 393.976 L 970.8 393.976 L 970.8 393.976 Q 977.784 389.728 982.032 383.392 L 982.032 383.392 L 982.032 383.392 Q 986.064 377.344 987.504 369.208 L 987.504 369.208 L 987.504 369.208 Q 987.864 367.192 987.864 365.104 L 987.864 365.104 L 987.864 365.104 Q 987.864 357.544 985.776 351.064 Z  M 975.984 366.904 L 975.984 366.904 L 975.984 366.904 Q 975.912 369.424 974.688 372.7 L 974.688 372.7 L 974.688 372.7 Q 973.464 375.976 971.88 378.064 L 971.88 378.064 L 971.88 378.064 Q 969.792 380.872 964.536 384.832 L 964.536 384.832 L 964.536 384.832 Q 958.56 389.44 955.968 389.224 L 955.968 389.224 L 955.968 389.224 Q 954.96 389.152 953.448 386.776 L 953.448 386.776 L 953.448 386.776 Q 952.8 385.696 952.224 385.696 L 952.224 385.696 L 952.224 385.696 Q 951.792 385.696 951.504 386.56 L 951.504 386.56 L 951.504 386.56 Q 951.072 387.712 950.28 388.216 L 950.28 388.216 L 950.28 388.216 Q 949.272 388.864 948.12 388.792 L 948.12 388.792 L 948.12 388.792 Q 945.312 388.576 940.416 385.192 L 940.416 385.192 L 940.416 385.192 Q 938.328 383.752 936.744 380.836 L 936.744 380.836 L 936.744 380.836 Q 935.16 377.92 934.872 375.256 L 934.872 375.256 L 934.872 375.256 Q 934.44 371.008 934.944 368.128 L 934.944 368.128 L 934.944 368.128 Q 935.808 363.304 939.264 363.952 L 939.264 363.952 L 939.264 363.952 Q 940.416 364.168 940.416 363.808 L 940.416 363.808 L 940.416 363.808 Q 940.416 363.808 939.66 362.908 L 939.66 362.908 L 939.66 362.908 Q 938.904 362.008 938.904 360.856 L 938.904 360.856 L 938.904 360.856 Q 938.904 359.704 939.408 358.768 L 939.408 358.768 L 939.408 358.768 Q 940.92 355.888 943.224 354.088 L 943.224 354.088 L 943.224 354.088 Q 944.016 353.512 944.016 353.08 L 944.016 353.08 L 944.016 353.08 Q 944.016 352.288 942.36 352.288 L 942.36 352.288 L 942.36 352.288 Q 939.264 352.288 937.32 354.448 L 937.32 354.448 L 937.32 354.448 Q 936.888 354.952 936.168 354.952 L 936.168 354.952 L 936.168 354.952 Q 934.512 354.952 933.432 352.216 L 933.432 352.216 L 933.432 352.216 Q 932.64 349.984 932.64 348.04 L 932.64 348.04 L 932.64 348.04 Q 932.64 344.08 936.024 338.392 L 936.024 338.392 L 936.024 338.392 Q 938.112 334.864 940.776 334.36 L 940.776 334.36 L 940.776 334.36 Q 942.792 333.928 942.792 336.592 L 942.792 336.592 L 942.792 336.592 Q 942.792 337.096 942.72 337.528 L 942.72 337.528 L 942.72 337.528 Q 942.432 339.112 943.296 339.112 L 943.296 339.112 L 943.296 339.112 Q 943.584 339.112 946.104 337.276 L 946.104 337.276 L 946.104 337.276 Q 948.624 335.44 949.632 335.08 L 949.632 335.08 L 949.632 335.08 Q 952.152 334.216 954.312 334.504 L 954.312 334.504 L 954.312 334.504 Q 959.424 335.224 965.832 339.832 L 965.832 339.832 L 965.832 339.832 Q 968.568 341.776 970.98 345.52 L 970.98 345.52 L 970.98 345.52 Q 973.392 349.264 974.184 352.648 L 974.184 352.648 L 974.184 352.648 Q 976.128 360.928 975.984 366.904 Z  M 480.048 372.52 L 480.048 372.52 L 480.048 372.52 Q 479.832 370.72 478.824 370.72 L 478.824 370.72 L 478.824 370.72 Q 477.96 370.72 477.168 371.8 L 477.168 371.8 L 477.168 371.8 Q 471.408 379.648 470.904 380.224 L 470.904 380.224 L 470.904 380.224 Q 466.872 384.976 462.912 386.776 L 462.912 386.776 L 462.912 386.776 Q 459.672 388.216 454.344 388.216 L 454.344 388.216 L 454.344 388.216 Q 453.408 388.216 449.736 387.856 L 449.736 387.856 L 449.736 387.856 Q 446.064 387.496 445.776 387.28 L 445.776 387.28 L 445.776 387.28 Q 445.632 387.064 447.648 385.912 L 447.648 385.912 L 447.648 385.912 Q 448.08 385.624 448.08 385.336 L 448.08 385.336 L 448.08 385.336 Q 448.08 384.328 445.488 383.752 L 445.488 383.752 L 445.488 383.752 Q 441.096 382.744 437.712 379.432 L 437.712 379.432 L 437.712 379.432 Q 436.128 377.92 434.616 374.32 L 434.616 374.32 L 434.616 374.32 Q 433.392 371.224 432.888 368.488 L 432.888 368.488 L 432.888 368.488 Q 431.52 361 432.024 353.872 L 432.024 353.872 L 432.024 353.872 Q 432.456 347.32 433.68 345.448 L 433.68 345.448 L 433.68 345.448 Q 435.264 343 440.952 341.488 L 440.952 341.488 L 440.952 341.488 Q 446.352 340.12 448.656 340.768 L 448.656 340.768 L 448.656 340.768 Q 448.944 340.84 449.088 340.84 L 449.088 340.84 L 449.088 340.84 Q 449.304 340.84 449.376 340.696 L 449.376 340.696 L 449.376 340.696 Q 449.376 340.264 446.64 338.392 L 446.64 338.392 L 446.64 338.392 Q 442.32 335.44 441.6 335.656 L 441.6 335.656 L 441.6 335.656 Q 441.312 335.764 441.096 335.728 L 441.096 335.728 L 441.096 335.728 Q 441.312 335.507 448.008 333.224 L 448.008 333.224 L 448.008 333.224 Q 450.168 332.488 453.192 332.488 L 453.192 332.488 L 453.192 332.488 Q 460.968 332.488 466.8 337.528 L 466.8 337.528 L 466.8 337.528 Q 469.392 339.832 470.184 341.632 L 470.184 341.632 L 470.184 341.632 Q 471.408 344.368 471.408 348.4 L 471.408 348.4 L 471.408 348.4 Q 471.408 348.976 471.228 350.164 L 471.228 350.164 L 471.228 350.164 Q 471.048 351.352 471.048 351.928 L 471.048 351.928 L 471.048 351.928 Q 471.048 353.152 471.912 353.152 L 471.912 353.152 L 471.912 353.152 Q 472.92 353.152 474.648 351.496 L 474.648 351.496 L 474.648 351.496 Q 477.96 348.4 477.96 343.936 L 477.96 343.936 L 477.96 343.936 Q 477.96 343.072 477.672 342.136 L 477.672 342.136 L 477.672 342.136 Q 476.088 337.024 472.488 332.92 L 472.488 332.92 L 472.488 332.92 Q 470.688 330.904 466.584 328.96 L 466.584 328.96 L 466.584 328.96 Q 463.056 327.304 459.744 326.512 L 459.744 326.512 L 459.744 326.512 Q 455.208 325.432 450.6 325.432 L 450.6 325.432 L 450.6 325.432 Q 447.36 325.432 445.632 326.008 L 445.632 326.008 L 445.632 326.008 Q 440.664 327.664 435.408 331.948 L 435.408 331.948 L 435.408 331.948 Q 430.152 336.232 424.968 346.168 L 424.968 346.168 L 424.968 346.168 Q 420.72 354.376 420.72 363.952 L 420.72 363.952 L 420.72 363.952 Q 420.72 365.248 420.792 365.968 L 420.792 365.968 L 420.792 365.968 Q 421.224 370.072 423.528 375.508 L 423.528 375.508 L 423.528 375.508 Q 425.832 380.944 428.496 384.4 L 428.496 384.4 L 428.496 384.4 Q 433.608 390.952 435.192 392.68 L 435.192 392.68 L 435.192 392.68 Q 439.728 397.288 444.12 398.008 L 444.12 398.008 L 444.12 398.008 Q 449.304 398.8 456.54 397.504 L 456.54 397.504 L 456.54 397.504 Q 463.776 396.208 467.952 393.472 L 467.952 393.472 L 467.952 393.472 Q 473.28 390.016 476.916 383.212 L 476.916 383.212 L 476.916 383.212 Q 480.552 376.408 480.048 372.52 Z  M 526.848 381.808 L 526.848 381.808 L 526.848 381.808 Q 525.264 380.44 522.384 376.12 L 522.384 376.12 L 522.384 376.12 Q 521.448 374.752 521.448 373.096 L 521.448 373.096 L 521.448 373.096 Q 521.448 370.216 523.608 368.416 L 523.608 368.416 L 523.608 368.416 Q 526.488 365.968 526.488 360.208 L 526.488 360.208 L 526.488 360.208 Q 526.488 355.672 523.104 351.352 L 523.104 351.352 L 523.104 351.352 Q 517.488 344.368 506.976 344.368 L 506.976 344.368 L 506.976 344.368 Q 501.792 344.368 497.616 347.428 L 497.616 347.428 L 497.616 347.428 Q 493.44 350.488 493.44 355.096 L 493.44 355.096 L 493.44 355.096 Q 493.44 356.32 493.872 357.688 L 493.872 357.688 L 493.872 357.688 Q 494.448 359.488 495.456 359.488 L 495.456 359.488 L 495.456 359.488 Q 496.32 359.488 496.32 357.4 L 496.32 357.4 L 496.32 357.4 Q 496.32 353.728 499.632 351.352 L 499.632 351.352 L 499.632 351.352 Q 501.576 349.984 505.464 349.984 L 505.464 349.984 L 505.464 349.984 Q 510 349.984 512.952 352.936 L 512.952 352.936 L 512.952 352.936 Q 516.12 356.176 516.12 361.432 L 516.12 361.432 L 516.12 361.432 Q 516.12 364.168 515.256 367.264 L 515.256 367.264 L 515.256 367.264 Q 513.456 365.176 507.984 365.176 L 507.984 365.176 L 507.984 365.176 Q 502.584 365.176 498.768 366.4 L 498.768 366.4 L 498.768 366.4 Q 496.464 367.12 494.232 369.1 L 494.232 369.1 L 494.232 369.1 Q 492 371.08 491.244 373.24 L 491.244 373.24 L 491.244 373.24 Q 490.488 375.4 490.488 378.136 L 490.488 378.136 L 490.488 378.136 Q 490.488 380.944 491.28 382.708 L 491.28 382.708 L 491.28 382.708 Q 492.072 384.472 494.232 386.344 L 494.232 386.344 L 494.232 386.344 Q 498.624 390.16 503.592 390.16 L 503.592 390.16 L 503.592 390.16 Q 505.608 390.16 508.776 389.224 L 508.776 389.224 L 508.776 389.224 Q 512.736 388.072 512.736 386.56 L 512.736 386.56 L 512.736 386.56 Q 512.736 385.912 510.792 386.056 L 510.792 386.056 L 510.792 386.056 Q 505.68 386.488 501.648 383.824 L 501.648 383.824 L 501.648 383.824 Q 500.136 382.816 499.056 381.232 L 499.056 381.232 L 499.056 381.232 Q 497.832 379.36 497.976 377.776 L 497.976 377.776 L 497.976 377.776 Q 498.12 376.264 499.632 374.824 L 499.632 374.824 L 499.632 374.824 Q 501 373.6 502.656 373.096 L 502.656 373.096 L 502.656 373.096 Q 503.88 372.736 505.32 372.736 L 505.32 372.736 L 505.32 372.736 Q 508.416 372.736 510.36 373.888 L 510.36 373.888 L 510.36 373.888 Q 511.728 374.68 513.312 373.96 L 513.312 373.96 L 513.312 373.96 Q 512.88 376.768 513.456 378.784 L 513.456 378.784 L 513.456 378.784 Q 514.68 383.32 518.712 387.712 L 518.712 387.712 L 518.712 387.712 Q 520.368 389.512 522.384 389.512 L 522.384 389.512 L 522.384 389.512 Q 524.472 389.512 525.624 387.712 L 525.624 387.712 L 525.624 387.712 Q 527.28 385.12 527.28 383.104 L 527.28 383.104 L 527.28 383.104 Q 527.28 382.168 526.848 381.808 Z  M 552.84 382.168 L 552.84 382.168 L 552.84 382.168 Q 552.336 383.608 549.456 385.048 L 549.456 385.048 L 549.456 385.048 Q 546.576 386.488 544.92 386.488 L 544.92 386.488 L 544.92 386.488 Q 543.264 386.488 542.544 385.696 L 542.544 385.696 L 542.544 385.696 Q 540.816 383.752 539.52 375.76 L 539.52 375.76 L 539.016 374.248 L 539.016 374.248 Q 539.304 361.648 542.184 356.248 L 542.184 356.248 L 542.184 356.248 Q 542.616 355.456 543.012 351.028 L 543.012 351.028 L 543.012 351.028 Q 543.408 346.6 544.308 344.404 L 544.308 344.404 L 544.308 344.404 Q 545.208 342.208 545.784 342.208 L 545.784 342.208 L 545.784 342.208 Q 546.072 342.208 546.144 342.928 L 546.144 342.928 L 546.144 342.928 Q 546.432 345.376 547.44 348.04 L 547.44 348.04 L 547.44 348.04 Q 547.944 349.408 549.528 349.408 L 549.528 349.408 L 549.528 349.408 Q 550.464 349.408 551.4 348.832 L 551.4 348.832 L 551.4 348.832 Q 554.28 347.032 558.096 346.888 L 558.096 346.888 L 558.096 346.888 Q 561.912 346.744 564.72 348.904 L 564.72 348.904 L 564.72 348.904 Q 565.872 349.768 565.872 350.272 L 565.872 350.272 L 565.872 350.272 Q 565.872 350.848 564.504 350.632 L 564.504 350.632 L 564.504 350.632 Q 563.136 350.416 561.336 350.416 L 561.336 350.416 L 561.336 350.416 Q 559.536 350.416 558.24 350.632 L 558.24 350.632 L 558.24 350.632 Q 555.216 351.136 552.624 353.872 L 552.624 353.872 L 552.624 353.872 Q 551.04 355.528 548.592 359.272 L 548.592 359.272 L 548.592 359.272 Q 546.36 362.656 546.144 366.688 L 546.144 366.688 L 546.144 366.688 Q 545.928 369.928 547.44 373.672 L 547.44 373.672 L 547.44 373.672 Q 549.024 377.632 551.544 379.504 L 551.544 379.504 L 551.544 379.504 Q 553.344 380.872 552.84 382.168 Z  M 609.864 361.216 L 609.864 361.216 L 609.864 361.216 Q 612.744 360.928 614.472 359.92 L 614.472 359.92 L 614.472 359.92 Q 616.776 358.624 616.776 356.68 L 616.776 356.68 L 616.776 356.68 Q 616.776 351.568 610.944 348.4 L 610.944 348.4 L 610.944 348.4 Q 607.2 346.384 602.448 346.384 L 602.448 346.384 L 602.448 346.384 Q 597.552 346.384 594.528 347.536 L 594.528 347.536 L 594.528 347.536 Q 590.568 349.12 586.608 350.704 L 586.608 350.704 L 586.608 350.704 Q 583.44 351.856 577.68 352.432 L 577.68 352.432 L 577.68 352.432 Q 574.152 352.792 574.152 353.512 L 574.152 353.512 L 574.152 353.512 Q 574.152 354.088 577.248 354.592 L 577.248 354.592 L 577.248 354.592 Q 583.368 355.6 583.368 357.688 L 583.368 357.688 L 583.368 357.688 Q 583.368 357.976 583.224 358.264 L 583.224 358.264 L 583.224 358.264 Q 581.856 360.064 581.856 364.384 L 581.856 364.384 L 581.856 364.384 Q 581.856 365.752 582 367.408 L 582 367.408 L 582 367.408 Q 582.576 374.248 585.672 379 L 585.672 379 L 585.672 379 Q 586.896 380.944 589.236 382.924 L 589.236 382.924 L 589.236 382.924 Q 591.576 384.904 593.592 385.696 L 593.592 385.696 L 593.592 385.696 Q 597.192 387.136 601.08 387.136 L 601.08 387.136 L 601.08 387.136 Q 601.944 387.136 602.448 387.064 L 602.448 387.064 L 602.448 387.064 Q 606.48 386.488 609 384.184 L 609 384.184 L 609 384.184 Q 609.864 383.392 609.864 382.888 L 609.864 382.888 L 609.864 382.888 Q 609.864 381.88 608.064 382.024 L 608.064 382.024 L 608.064 382.024 Q 605.904 382.168 604.392 382.168 L 604.392 382.168 L 604.392 382.168 Q 596.76 382.168 593.592 379.144 L 593.592 379.144 L 593.592 379.144 Q 590.712 376.48 589.344 370.648 L 589.344 370.648 L 589.344 370.648 Q 588.984 369.136 588.984 367.264 L 588.984 367.264 L 588.984 367.264 Q 588.984 363.304 590.352 361.072 L 590.352 361.072 L 590.352 361.072 Q 592.728 357.112 597.048 355.24 L 597.048 355.24 L 597.048 355.24 Q 598.992 354.376 601.224 354.376 L 601.224 354.376 L 601.224 354.376 Q 603.024 354.376 604.752 355.6 L 604.752 355.6 L 604.752 355.6 Q 606.48 356.824 606.12 358.552 L 606.12 358.552 L 606.12 358.552 Q 605.976 359.2 605.976 359.704 L 605.976 359.704 L 605.976 359.704 Q 605.976 361.072 607.344 361.288 L 607.344 361.288 L 607.344 361.288 Q 607.848 361.36 609.864 361.216 Z  M 633.552 351.928 L 633.552 351.928 L 633.552 351.928 Q 638.304 353.152 638.304 356.68 L 638.304 356.68 L 638.304 356.68 Q 638.304 357.472 638.016 358.12 L 638.016 358.12 L 638.016 358.12 Q 636.792 360.712 636.792 364.384 L 636.792 364.384 L 636.792 364.384 Q 636.792 366.04 637.152 367.408 L 637.152 367.408 L 637.152 367.408 Q 638.376 372.232 642.48 376.192 L 642.48 376.192 L 642.48 376.192 Q 644.064 377.704 646.8 377.704 L 646.8 377.704 L 646.8 377.704 Q 652.992 377.704 657.6 370.792 L 657.6 370.792 L 657.6 370.792 Q 659.328 368.2 659.832 365.608 L 659.832 365.608 L 659.832 365.608 Q 660.264 363.664 660.264 359.92 L 660.264 359.92 L 660.264 359.92 Q 660.264 357.112 659.976 356.104 L 659.976 356.104 L 659.976 356.104 Q 659.544 354.448 657.96 353.008 L 657.96 353.008 L 657.96 353.008 Q 653.928 349.408 645.792 349.408 L 645.792 349.408 L 645.792 349.408 Q 645 349.408 643.344 349.588 L 643.344 349.588 L 643.344 349.588 Q 641.688 349.768 640.896 349.768 L 640.896 349.768 L 640.896 349.768 Q 639.6 349.768 639.6 349.336 L 639.6 349.336 L 639.6 349.336 Q 639.6 348.4 644.424 347.104 L 644.424 347.104 L 644.424 347.104 Q 648.528 345.952 650.256 345.808 L 650.256 345.808 L 650.256 345.808 Q 652.704 345.592 655.872 346.564 L 655.872 346.564 L 655.872 346.564 Q 659.04 347.536 661.056 349.048 L 661.056 349.048 L 661.056 349.048 Q 663.288 350.776 665.052 354.052 L 665.052 354.052 L 665.052 354.052 Q 666.816 357.328 667.248 360.352 L 667.248 360.352 L 667.248 360.352 Q 667.464 361.792 667.464 363.16 L 667.464 363.16 L 667.464 363.16 Q 667.464 370.072 665.16 375.472 L 665.16 375.472 L 665.16 375.472 Q 663.792 378.712 660.444 381.556 L 660.444 381.556 L 660.444 381.556 Q 657.096 384.4 653.64 385.336 L 653.64 385.336 L 653.64 385.336 Q 650.688 386.128 647.16 386.128 L 647.16 386.128 L 647.16 386.128 Q 642.12 386.128 638.808 384.976 L 638.808 384.976 L 638.808 384.976 Q 634.992 383.608 631.968 380.152 L 631.968 380.152 L 631.968 380.152 Q 629.16 376.984 628.224 373.744 L 628.224 373.744 L 628.224 373.744 Q 626.424 367.336 626.424 360.856 L 626.424 360.856 L 626.424 360.856 Q 626.424 355.528 628.296 353.44 L 628.296 353.44 L 628.296 353.44 Q 629.88 351.712 632.112 351.712 L 632.112 351.712 L 632.112 351.712 Q 632.76 351.712 633.552 351.928 Z  M 683.88 361 L 683.88 361 L 683.88 361 Q 687.192 362.656 692.016 362.656 L 692.016 362.656 L 692.016 362.656 Q 693.456 362.656 695.472 362.296 L 695.472 362.296 L 695.472 362.296 Q 698.136 361.792 698.136 361 L 698.136 361 L 698.136 361 Q 698.136 360.352 695.904 359.992 L 695.904 359.992 L 695.904 359.992 Q 690.072 359.128 686.472 356.968 L 686.472 356.968 L 686.472 356.968 Q 685.176 356.176 684.096 354.592 L 684.096 354.592 L 684.096 354.592 Q 683.016 353.008 683.304 351.64 L 683.304 351.64 L 683.304 351.64 Q 683.664 349.768 686.4 348.616 L 686.4 348.616 L 686.4 348.616 Q 688.632 347.608 690.864 347.608 L 690.864 347.608 L 690.864 347.608 Q 695.832 347.608 699.864 349.768 L 699.864 349.768 L 699.864 349.768 Q 702.168 350.992 704.616 350.992 L 704.616 350.992 L 704.616 350.992 Q 708.36 350.992 708.36 348.616 L 708.36 348.616 L 708.36 348.616 Q 708.36 346.312 704.832 344.656 L 704.832 344.656 L 704.832 344.656 Q 699.216 341.992 694.248 341.56 L 694.248 341.56 L 694.248 341.56 Q 689.64 341.2 684.528 342.712 L 684.528 342.712 L 684.528 342.712 Q 678.48 344.44 676.752 347.896 L 676.752 347.896 L 676.752 347.896 Q 676.104 349.192 676.104 351.208 L 676.104 351.208 L 676.104 351.208 Q 676.104 357.112 683.88 361 Z  M 710.52 371.44 L 710.52 371.44 L 710.52 371.44 Q 709.512 366.688 709.368 365.428 L 709.368 365.428 L 709.368 365.428 Q 709.224 364.168 707.568 361.864 L 707.568 361.864 L 707.568 361.864 Q 705.912 359.56 704.832 359.56 L 704.832 359.56 L 704.832 359.56 Q 704.472 359.56 704.472 360.064 L 704.472 360.064 L 704.472 360.064 Q 704.472 360.424 704.652 361.288 L 704.652 361.288 L 704.652 361.288 Q 704.832 362.152 704.832 362.584 L 704.832 362.584 L 704.832 362.584 Q 704.832 363.52 704.544 363.808 L 704.544 363.808 L 704.544 363.808 Q 704.328 364.024 699.144 363.448 L 699.144 363.448 L 699.144 363.448 Q 693.6 362.728 692.808 362.8 L 692.808 362.8 L 692.808 362.8 Q 688.344 363.088 686.544 364.384 L 686.544 364.384 L 686.544 364.384 Q 685.608 365.032 684.168 366.832 L 684.168 366.832 L 684.168 366.832 Q 682.728 368.632 682.728 369.424 L 682.728 369.424 L 682.728 369.424 Q 682.728 369.784 683.016 369.784 L 683.016 369.784 L 683.016 369.784 Q 684.096 369.352 688.776 367.336 L 688.776 367.336 L 688.776 367.336 Q 690.576 366.544 692.448 366.544 L 692.448 366.544 L 692.448 366.544 Q 693.96 366.544 695.472 367.048 L 695.472 367.048 L 695.472 367.048 Q 699 368.2 701.952 370 L 701.952 370 L 701.952 370 Q 704.184 371.368 704.184 373.96 L 704.184 373.96 L 704.184 373.96 Q 704.184 375.688 702.744 377.02 L 702.744 377.02 L 702.744 377.02 Q 701.304 378.352 699.576 378.64 L 699.576 378.64 L 699.576 378.64 Q 695.976 379.216 693.096 378.784 L 693.096 378.784 L 693.096 378.784 Q 690.072 378.352 686.4 375.832 L 686.4 375.832 L 686.4 375.832 Q 685.104 374.968 683.448 374.968 L 683.448 374.968 L 683.448 374.968 Q 681.576 374.968 679.992 376.048 L 679.992 376.048 L 679.992 376.048 Q 678.192 377.272 678.192 379.072 L 678.192 379.072 L 678.192 379.072 Q 678.192 381.52 680.928 383.176 L 680.928 383.176 L 680.928 383.176 Q 686.04 386.344 691.728 387.136 L 691.728 387.136 L 691.728 387.136 Q 692.736 387.28 693.456 387.28 L 693.456 387.28 L 693.456 387.28 Q 698.568 387.28 702.312 385.048 L 702.312 385.048 L 702.312 385.048 Q 707.136 382.168 709.296 378.784 L 709.296 378.784 L 709.296 378.784 Q 710.664 376.624 710.664 373.384 L 710.664 373.384 L 710.664 373.384 Q 710.664 372.088 710.52 371.44 Z  M 762 381.808 L 762 381.808 L 762 381.808 Q 760.416 380.44 757.536 376.12 L 757.536 376.12 L 757.536 376.12 Q 756.6 374.752 756.6 373.096 L 756.6 373.096 L 756.6 373.096 Q 756.6 370.216 758.76 368.416 L 758.76 368.416 L 758.76 368.416 Q 761.64 365.968 761.64 360.208 L 761.64 360.208 L 761.64 360.208 Q 761.64 355.672 758.256 351.352 L 758.256 351.352 L 758.256 351.352 Q 752.64 344.368 742.128 344.368 L 742.128 344.368 L 742.128 344.368 Q 736.944 344.368 732.768 347.428 L 732.768 347.428 L 732.768 347.428 Q 728.592 350.488 728.592 355.096 L 728.592 355.096 L 728.592 355.096 Q 728.592 356.32 729.024 357.688 L 729.024 357.688 L 729.024 357.688 Q 729.6 359.488 730.608 359.488 L 730.608 359.488 L 730.608 359.488 Q 731.472 359.488 731.472 357.4 L 731.472 357.4 L 731.472 357.4 Q 731.472 353.728 734.784 351.352 L 734.784 351.352 L 734.784 351.352 Q 736.728 349.984 740.616 349.984 L 740.616 349.984 L 740.616 349.984 Q 745.152 349.984 748.104 352.936 L 748.104 352.936 L 748.104 352.936 Q 751.272 356.176 751.272 361.432 L 751.272 361.432 L 751.272 361.432 Q 751.272 364.168 750.408 367.264 L 750.408 367.264 L 750.408 367.264 Q 748.608 365.176 743.136 365.176 L 743.136 365.176 L 743.136 365.176 Q 737.736 365.176 733.92 366.4 L 733.92 366.4 L 733.92 366.4 Q 731.616 367.12 729.384 369.1 L 729.384 369.1 L 729.384 369.1 Q 727.152 371.08 726.396 373.24 L 726.396 373.24 L 726.396 373.24 Q 725.64 375.4 725.64 378.136 L 725.64 378.136 L 725.64 378.136 Q 725.64 380.944 726.432 382.708 L 726.432 382.708 L 726.432 382.708 Q 727.224 384.472 729.384 386.344 L 729.384 386.344 L 729.384 386.344 Q 733.776 390.16 738.744 390.16 L 738.744 390.16 L 738.744 390.16 Q 740.76 390.16 743.928 389.224 L 743.928 389.224 L 743.928 389.224 Q 747.888 388.072 747.888 386.56 L 747.888 386.56 L 747.888 386.56 Q 747.888 385.912 745.944 386.056 L 745.944 386.056 L 745.944 386.056 Q 740.832 386.488 736.8 383.824 L 736.8 383.824 L 736.8 383.824 Q 735.288 382.816 734.208 381.232 L 734.208 381.232 L 734.208 381.232 Q 732.984 379.36 733.128 377.776 L 733.128 377.776 L 733.128 377.776 Q 733.272 376.264 734.784 374.824 L 734.784 374.824 L 734.784 374.824 Q 736.152 373.6 737.808 373.096 L 737.808 373.096 L 737.808 373.096 Q 739.032 372.736 740.472 372.736 L 740.472 372.736 L 740.472 372.736 Q 743.568 372.736 745.512 373.888 L 745.512 373.888 L 745.512 373.888 Q 746.88 374.68 748.464 373.96 L 748.464 373.96 L 748.464 373.96 Q 748.032 376.768 748.608 378.784 L 748.608 378.784 L 748.608 378.784 Q 749.832 383.32 753.864 387.712 L 753.864 387.712 L 753.864 387.712 Q 755.52 389.512 757.536 389.512 L 757.536 389.512 L 757.536 389.512 Q 759.624 389.512 760.776 387.712 L 760.776 387.712 L 760.776 387.712 Q 762.432 385.12 762.432 383.104 L 762.432 383.104 L 762.432 383.104 Q 762.432 382.168 762 381.808 Z " fill="rgb(0,0,0)"/></g></svg>