<?xml version="1.0" encoding="UTF-8" standalone="no"?><!-- Generator: Gravit.io --><svg xmlns="http://www.w3.org/2000/svg" xmlns:xlink="http://www.w3.org/1999/xlink" style="isolation:isolate" viewBox="401.88 133.8 291.63 49.824" width="291.63pt" height="49.824pt"><defs><clipPath id="_clipPath_QU6rkNeSXxg1Xv4wcmqZdWByiMZlQUam"><rect x="401.88" y="133.8" width="291.63" height="49.824"/></clipPath></defs><g clip-path="url(#_clipPath_QU6rkNeSXxg1Xv4wcmqZdWByiMZlQUam)"><rect x="401.88" y="133.8" width="291.63" height="49.824" style="fill:rgb(0,0,0)" fill-opacity="0"/><path d=" M 430.392 142.296 L 430.392 142.296 L 430.392 142.296 Q 429.6 140.928 424.488 140.928 L 424.488 140.928 L 424.488 140.928 Q 417.792 140.928 414.336 145.464 L 414.336 145.464 L 414.336 145.464 Q 410.88 150 410.88 158.568 L 410.88 158.568 L 410.88 158.568 Q 410.88 176.352 424.2 176.352 L 424.2 176.352 L 424.2 176.352 Q 424.416 176.352 426.108 176.352 L 426.108 176.352 L 426.108 176.352 Q 427.8 176.352 429.312 175.884 L 429.312 175.884 L 429.312 175.884 Q 430.824 175.416 431.112 174.912 L 431.112 174.912 L 431.112 174.912 Q 431.4 174.408 431.4 173.328 L 431.4 173.328 L 431.4 167.568 L 438.744 168.072 L 438.744 180.528 L 438.744 180.528 Q 433.128 183.48 424.488 183.48 L 424.488 183.48 L 424.488 183.48 Q 413.472 183.48 407.676 177.288 L 407.676 177.288 L 407.676 177.288 Q 401.88 171.096 401.88 158.856 L 401.88 158.856 L 401.88 158.856 Q 401.88 152.088 403.824 147.048 L 403.824 147.048 L 403.824 147.048 Q 405.768 142.008 409.08 139.2 L 409.08 139.2 L 409.08 139.2 Q 415.56 133.8 424.488 133.8 L 424.488 133.8 L 424.488 133.8 Q 431.688 133.8 438.024 136.752 L 438.024 136.752 L 438.024 148.992 L 430.68 149.496 L 430.68 143.88 L 430.68 143.88 Q 430.68 142.8 430.392 142.296 Z  M 477.048 147.768 L 477.048 147.768 L 477.048 174.552 L 477.048 174.552 Q 477.048 175.704 477.444 176.136 L 477.444 176.136 L 477.444 176.136 Q 477.84 176.568 478.848 176.64 L 478.848 176.64 L 481.152 176.784 L 481.152 182.544 L 469.704 182.544 L 469.704 178.368 L 469.488 178.296 L 469.488 178.296 Q 465.888 183.48 459.624 183.48 L 459.624 183.48 L 459.624 183.48 Q 452.28 183.48 448.752 178.8 L 448.752 178.8 L 448.752 178.8 Q 445.224 174.12 445.224 165.984 L 445.224 165.984 L 445.224 165.984 Q 445.224 156.192 449.976 150.72 L 449.976 150.72 L 449.976 150.72 Q 454.728 145.248 464.232 145.248 L 464.232 145.248 L 464.232 145.248 Q 470.352 145.248 477.048 147.768 Z  M 468.696 171.096 L 468.696 171.096 L 468.696 152.448 L 468.696 152.448 Q 466.68 151.512 463.152 151.512 L 463.152 151.512 L 463.152 151.512 Q 458.328 151.512 456.168 155.4 L 456.168 155.4 L 456.168 155.4 Q 454.008 159.288 454.008 165.696 L 454.008 165.696 L 454.008 165.696 Q 454.008 177.36 461.496 177.36 L 461.496 177.36 L 461.496 177.36 Q 464.664 177.36 466.68 175.452 L 466.68 175.452 L 466.68 175.452 Q 468.696 173.544 468.696 171.096 Z  M 490.008 174.48 L 490.008 174.48 L 490.008 154.536 L 490.008 154.536 Q 490.008 153.384 489.612 152.916 L 489.612 152.916 L 489.612 152.916 Q 489.216 152.448 488.208 152.376 L 488.208 152.376 L 485.184 152.16 L 485.184 146.328 L 497.352 146.328 L 497.352 151.728 L 497.352 151.728 Q 498.648 148.92 501.384 147.084 L 501.384 147.084 L 501.384 147.084 Q 504.12 145.248 507.684 145.248 L 507.684 145.248 L 507.684 145.248 Q 511.248 145.248 514.488 146.832 L 514.488 146.832 L 514.488 157.56 L 507.792 158.064 L 507.792 154.752 L 507.792 154.752 Q 507.792 153.312 507.072 152.952 L 507.072 152.952 L 507.072 152.952 Q 506.28 152.592 505.128 152.592 L 505.128 152.592 L 505.128 152.592 Q 502.248 152.592 500.412 154.644 L 500.412 154.644 L 500.412 154.644 Q 498.576 156.696 498.576 159.864 L 498.576 159.864 L 498.576 176.568 L 504.84 176.856 L 504.84 182.544 L 485.544 182.544 L 485.544 177.072 L 487.92 176.856 L 487.92 176.856 Q 489 176.712 489.504 176.244 L 489.504 176.244 L 489.504 176.244 Q 490.008 175.776 490.008 174.48 Z  M 527.52 164.04 L 527.52 164.04 Q 527.52 170.16 529.824 173.544 L 529.824 173.544 L 529.824 173.544 Q 532.128 176.928 536.484 176.928 L 536.484 176.928 L 536.484 176.928 Q 540.84 176.928 545.088 173.832 L 545.088 173.832 L 548.184 179.376 L 548.184 179.376 Q 543.072 183.552 535.368 183.552 L 535.368 183.552 L 535.368 183.552 Q 527.664 183.552 523.236 178.692 L 523.236 178.692 L 523.236 178.692 Q 518.808 173.832 518.808 164.328 L 518.808 164.328 L 518.808 164.328 Q 518.808 154.824 523.884 150.036 L 523.884 150.036 L 523.884 150.036 Q 528.96 145.248 535.332 145.248 L 535.332 145.248 L 535.332 145.248 Q 541.704 145.248 547.176 148.2 L 547.176 148.2 L 547.176 157.56 L 540.552 158.064 L 540.552 154.608 L 540.552 154.608 Q 540.552 152.664 539.148 152.196 L 539.148 152.196 L 539.148 152.196 Q 537.744 151.728 536.232 151.728 L 536.232 151.728 L 536.232 151.728 Q 527.52 151.728 527.52 164.04 L 527.52 164.04 L 527.52 164.04 Z  M 568.56 177.288 L 568.56 177.288 L 568.56 177.288 Q 576.408 177.288 576.408 164.616 L 576.408 164.616 L 576.408 164.616 Q 576.408 158.208 574.644 154.896 L 574.644 154.896 L 574.644 154.896 Q 572.88 151.584 568.74 151.584 L 568.74 151.584 L 568.74 151.584 Q 564.6 151.584 562.656 154.752 L 562.656 154.752 L 562.656 154.752 Q 560.712 157.92 560.712 163.392 L 560.712 163.392 L 560.712 163.392 Q 560.712 173.544 564.456 176.136 L 564.456 176.136 L 564.456 176.136 Q 566.112 177.288 568.56 177.288 Z  M 552 164.4 L 552 164.4 L 552 164.4 Q 552 159.072 553.584 155.148 L 553.584 155.148 L 553.584 155.148 Q 555.168 151.224 557.832 149.136 L 557.832 149.136 L 557.832 149.136 Q 562.944 145.248 569.136 145.248 L 569.136 145.248 L 569.136 145.248 Q 573.456 145.248 576.444 146.652 L 576.444 146.652 L 576.444 146.652 Q 579.432 148.056 581.124 149.892 L 581.124 149.892 L 581.124 149.892 Q 582.816 151.728 584.004 155.22 L 584.004 155.22 L 584.004 155.22 Q 585.192 158.712 585.192 163.464 L 585.192 163.464 L 585.192 163.464 Q 585.192 173.4 580.368 178.512 L 580.368 178.512 L 580.368 178.512 Q 575.544 183.624 568.02 183.624 L 568.02 183.624 L 568.02 183.624 Q 560.496 183.624 556.248 178.764 L 556.248 178.764 L 556.248 178.764 Q 552 173.904 552 164.4 Z  M 608.88 151.8 L 608.88 151.8 L 608.88 151.8 Q 607.152 151.152 604.704 151.152 L 604.704 151.152 L 604.704 151.152 Q 602.256 151.152 600.78 152.268 L 600.78 152.268 L 600.78 152.268 Q 599.304 153.384 599.304 155.004 L 599.304 155.004 L 599.304 155.004 Q 599.304 156.624 599.844 157.524 L 599.844 157.524 L 599.844 157.524 Q 600.384 158.424 601.536 159.072 L 601.536 159.072 L 601.536 159.072 Q 603.336 160.008 605.856 160.692 L 605.856 160.692 L 605.856 160.692 Q 608.376 161.376 609.6 161.772 L 609.6 161.772 L 609.6 161.772 Q 610.824 162.168 612.66 163.104 L 612.66 163.104 L 612.66 163.104 Q 614.496 164.04 615.432 165.12 L 615.432 165.12 L 615.432 165.12 Q 617.952 167.784 617.952 171.96 L 617.952 171.96 L 617.952 171.96 Q 617.952 177.36 614.028 180.42 L 614.028 180.42 L 614.028 180.42 Q 610.104 183.48 604.056 183.48 L 604.056 183.48 L 604.056 183.48 Q 595.272 183.48 590.808 181.248 L 590.808 181.248 L 590.808 171.24 L 597.288 170.736 L 597.288 174.192 L 597.288 174.192 Q 597.288 177.36 603.336 177.36 L 603.336 177.36 L 603.336 177.36 Q 609.384 177.36 609.384 172.968 L 609.384 172.968 L 609.384 172.968 Q 609.384 171.384 608.34 170.376 L 608.34 170.376 L 608.34 170.376 Q 607.296 169.368 606.288 169.008 L 606.288 169.008 L 606.288 169.008 Q 605.28 168.648 603.876 168.288 L 603.876 168.288 L 603.876 168.288 Q 602.472 167.928 601.14 167.568 L 601.14 167.568 L 601.14 167.568 Q 599.808 167.208 598.26 166.596 L 598.26 166.596 L 598.26 166.596 Q 596.712 165.984 594.84 164.832 L 594.84 164.832 L 594.84 164.832 Q 591.168 162.456 591.168 156.876 L 591.168 156.876 L 591.168 156.876 Q 591.168 151.296 595.128 148.272 L 595.128 148.272 L 595.128 148.272 Q 599.088 145.248 605.1 145.248 L 605.1 145.248 L 605.1 145.248 Q 611.112 145.248 617.016 148.128 L 617.016 148.128 L 617.016 156.768 L 610.536 157.272 L 610.536 154.248 L 610.536 154.248 Q 610.536 152.448 608.88 151.8 Z  M 654.816 147.768 L 654.816 147.768 L 654.816 174.552 L 654.816 174.552 Q 654.816 175.704 655.212 176.136 L 655.212 176.136 L 655.212 176.136 Q 655.608 176.568 656.616 176.64 L 656.616 176.64 L 658.92 176.784 L 658.92 182.544 L 647.472 182.544 L 647.472 178.368 L 647.256 178.296 L 647.256 178.296 Q 643.656 183.48 637.392 183.48 L 637.392 183.48 L 637.392 183.48 Q 630.048 183.48 626.52 178.8 L 626.52 178.8 L 626.52 178.8 Q 622.992 174.12 622.992 165.984 L 622.992 165.984 L 622.992 165.984 Q 622.992 156.192 627.744 150.72 L 627.744 150.72 L 627.744 150.72 Q 632.496 145.248 642 145.248 L 642 145.248 L 642 145.248 Q 648.12 145.248 654.816 147.768 Z  M 646.464 171.096 L 646.464 171.096 L 646.464 152.448 L 646.464 152.448 Q 644.448 151.512 640.92 151.512 L 640.92 151.512 L 640.92 151.512 Q 636.096 151.512 633.936 155.4 L 633.936 155.4 L 633.936 155.4 Q 631.776 159.288 631.776 165.696 L 631.776 165.696 L 631.776 165.696 Q 631.776 177.36 639.264 177.36 L 639.264 177.36 L 639.264 177.36 Q 642.432 177.36 644.448 175.452 L 644.448 175.452 L 644.448 175.452 Q 646.464 173.544 646.464 171.096 Z " fill="rgb(0,0,0)"/><path d=" M 689.212 183.078 L 685.236 183.078 L 685.236 181.944 L 685.698 181.902 L 685.698 181.902 Q 686.104 181.86 686.104 181.51 L 686.104 181.51 L 686.104 175 L 685.306 174.958 L 685.306 173.768 L 689.142 173.768 L 689.142 173.768 Q 691.2 173.768 692.355 174.86 L 692.355 174.86 L 692.355 174.86 Q 693.51 175.952 693.51 178.094 L 693.51 178.094 L 693.51 178.094 Q 693.51 179.424 693.16 180.411 L 693.16 180.411 L 693.16 180.411 Q 692.81 181.398 692.208 181.958 L 692.208 181.958 L 692.208 181.958 Q 691.004 183.078 689.212 183.078 L 689.212 183.078 L 689.212 183.078 Z  M 689.058 175.126 L 687.812 175.126 L 687.812 181.734 L 689.24 181.734 L 689.24 181.734 Q 690.444 181.734 691.116 180.866 L 691.116 180.866 L 691.116 180.866 Q 691.788 179.998 691.788 178.346 L 691.788 178.346 L 691.788 178.346 Q 691.788 175.126 689.058 175.126 L 689.058 175.126 L 689.058 175.126 Z  M 669.934 183.078 L 666.448 183.078 L 666.448 181.944 L 666.91 181.902 L 666.91 181.902 Q 667.316 181.86 667.316 181.51 L 667.316 181.51 L 667.316 175 L 666.518 174.958 L 666.518 173.768 L 670.34 173.768 L 670.34 173.768 Q 671.964 173.768 672.832 174.37 L 672.832 174.37 L 672.832 174.37 Q 673.7 174.972 673.7 176.344 L 673.7 176.344 L 673.7 176.344 Q 673.7 177.296 673.203 177.912 L 673.203 177.912 L 673.203 177.912 Q 672.706 178.528 672.02 178.808 L 672.02 178.808 L 672.02 178.808 Q 672.524 178.99 672.818 179.662 L 672.818 179.662 L 673.826 181.86 L 674.624 181.888 L 674.624 183.078 L 671.166 183.078 L 671.166 181.944 L 671.572 181.902 L 671.572 181.902 Q 671.894 181.86 671.894 181.65 L 671.894 181.65 L 671.894 181.65 Q 671.894 181.566 671.838 181.454 L 671.838 181.454 L 671.18 180.054 L 671.18 180.054 Q 671.026 179.704 670.837 179.557 L 670.837 179.557 L 670.837 179.557 Q 670.648 179.41 670.298 179.41 L 670.298 179.41 L 669.024 179.41 L 669.024 181.846 L 669.934 181.888 L 669.934 183.078 L 669.934 183.078 Z  M 669.024 175.126 L 669.024 178.08 L 670.242 178.08 L 670.242 178.08 Q 671.964 178.08 671.964 176.54 L 671.964 176.54 L 671.964 176.54 Q 671.964 175.658 671.509 175.392 L 671.509 175.392 L 671.509 175.392 Q 671.054 175.126 670.046 175.126 L 670.046 175.126 L 669.024 175.126 L 669.024 175.126 Z  M 681.414 179.998 L 681.414 179.998 L 681.414 179.998 Q 681.68 179.326 681.68 178.71 L 681.68 178.71 L 681.68 178.71 Q 681.68 178.514 681.428 178.486 L 681.428 178.486 L 680.98 178.458 L 680.98 177.366 L 683.934 177.366 L 683.934 178.5 L 683.164 178.528 L 683.164 178.528 Q 683.164 179.872 682.576 180.992 L 682.576 180.992 L 682.576 180.992 Q 683.206 181.524 684.34 182.336 L 684.34 182.336 L 683.416 183.554 L 683.416 183.554 Q 682.576 182.994 681.652 182.238 L 681.652 182.238 L 681.652 182.238 Q 680.616 183.274 678.852 183.274 L 678.852 183.274 L 678.852 183.274 Q 677.088 183.274 676.276 182.448 L 676.276 182.448 L 676.276 182.448 Q 675.464 181.622 675.464 180.432 L 675.464 180.432 L 675.464 180.432 Q 675.464 178.584 677.172 177.52 L 677.172 177.52 L 677.172 177.52 Q 676.738 176.806 676.738 175.98 L 676.738 175.98 L 676.738 175.98 Q 676.738 174.916 677.452 174.258 L 677.452 174.258 L 677.452 174.258 Q 678.166 173.6 679.461 173.6 L 679.461 173.6 L 679.461 173.6 Q 680.756 173.6 681.988 174.174 L 681.988 174.174 L 681.988 176.288 L 680.56 176.386 L 680.56 175.532 L 680.56 175.532 Q 680.56 175.14 680.266 175.042 L 680.266 175.042 L 680.266 175.042 Q 679.888 174.93 679.524 174.93 L 679.524 174.93 L 679.524 174.93 Q 678.39 174.93 678.39 176.008 L 678.39 176.008 L 678.39 176.008 Q 678.39 177.436 681.414 179.998 Z  M 680.476 181.258 L 680.476 181.258 L 680.476 181.258 Q 678.796 179.83 677.942 178.682 L 677.942 178.682 L 677.942 178.682 Q 677.088 179.284 677.088 180.32 L 677.088 180.32 L 677.088 180.32 Q 677.088 181.034 677.529 181.475 L 677.529 181.475 L 677.529 181.475 Q 677.97 181.916 678.929 181.916 L 678.929 181.916 L 678.929 181.916 Q 679.888 181.916 680.476 181.258 Z " fill="rgb(0,0,0)"/></g></svg>